<?xml version="1.0" encoding="UTF-8" standalone="no"?>
<!DOCTYPE svg PUBLIC "-//W3C//DTD SVG 1.1//EN" "http://www.w3.org/Graphics/SVG/1.1/DTD/svg11.dtd">
<svg width="100%" height="100%" viewBox="0 0 560 560" version="1.1" xmlns="http://www.w3.org/2000/svg" xmlns:xlink="http://www.w3.org/1999/xlink" xml:space="preserve" xmlns:serif="http://www.serif.com/" style="fill-rule:evenodd;clip-rule:evenodd;stroke-linecap:round;stroke-linejoin:round;stroke-miterlimit:1.5;">
    <g transform="matrix(0.48,0,0,0.48,-1259.28,-1892.09)">
        <g id="Trackstar-Live---Fasthand" serif:id="Trackstar Live - Fasthand" transform="matrix(1,0,0,1,-73.2743,3045.33)">
            <rect x="2696.77" y="896.527" width="1166.21" height="1166.21" style="fill:none;"/>
            <g transform="matrix(6.12323e-17,1,-1,6.12323e-17,5450.95,578.377)">
                <path d="M901.257,1650L1022.83,2024.17L1416.26,2024.17L1097.97,2255.42L1219.55,2629.6L901.257,2398.35L582.967,2629.6L704.543,2255.42L386.252,2024.17L779.681,2024.17L901.257,1650Z" style="fill:none;"/>
                <clipPath id="_clip1">
                    <path d="M901.257,1650L1022.83,2024.17L1416.26,2024.17L1097.97,2255.42L1219.55,2629.6L901.257,2398.35L582.967,2629.6L704.543,2255.42L386.252,2024.17L779.681,2024.17L901.257,1650Z"/>
                </clipPath>
                <g clip-path="url(#_clip1)">
                    <g transform="matrix(6.12323e-17,-1,1,6.12323e-17,-1370.81,3582.56)">
                        <g transform="matrix(1.10111,0,0,1.12497,-154.89,-270.794)">
                            <rect x="913.763" y="1744.04" width="1058" height="1019.23"/>
                        </g>
                        <g transform="matrix(1,0,0,-1,0,4554.92)">
                            <path d="M990.196,1847.38L990.196,2707.55L1145.32,2331.62L1146.84,2331.66C1146.08,2372.05 1139.89,2714.17 1148.44,2713.54C1257.39,2705.51 1312.59,2391.1 1321.44,2335.99L1322.42,2336.01C1320.51,2391.89 1310.05,2713.57 1322.71,2713.54C1408.47,2713.35 1488.16,2407.23 1504.51,2340.52L1507.07,2340.58C1504.62,2406.71 1494.22,2706.59 1507.56,2707.55C1586.94,2713.23 1656.26,2419.04 1672.49,2344.68L1675.49,2344.75C1673.01,2419.28 1663.95,2713.84 1676.07,2713.54C1773.44,2711.16 1834.58,2429.61 1850.08,2349.08L1853.99,2349.17L1853.99,2713.54L1971.77,2278.2L1853.99,1841.38L1853.99,2204.66L1849.86,2204.68C1833.99,2122.64 1772.97,1843.75 1676.07,1841.38C1664.2,1841.1 1672.65,2123.98 1675.33,2205.44L1671.44,2205.46C1653.44,2124.08 1585.34,1841.81 1507.56,1847.38C1494.71,1848.3 1503.89,2126.68 1506.78,2206.17L1502.47,2206.19C1482.35,2125.8 1405.34,1841.57 1322.71,1841.38C1310.77,1841.36 1319.4,2127.64 1322.02,2206.97L1319.45,2206.98C1306.07,2128.72 1251.14,1848.96 1148.44,1841.38C1140.59,1840.81 1145.17,2129.41 1146.55,2207.74L1138.91,2207.77L990.196,1847.38Z" style="fill:rgb(12,87,208);"/>
                        </g>
                        <g transform="matrix(1,0,0,-1,0,4554.92)">
                            <path d="M990.196,2039.46L990.196,2501.66L1145.32,2331.62L1146.84,2331.66C1146.08,2372.05 1147.19,2722.02 1148.44,2713.54C1203.61,2337.76 1312.59,2391.1 1321.44,2335.99L1322.42,2336.01C1320.51,2391.89 1321.83,2726.16 1322.71,2713.54C1356.28,2230.17 1488.16,2407.23 1504.51,2340.52L1507.07,2340.58C1504.62,2406.71 1500.62,2718.97 1507.56,2707.55C1712.51,2370.4 1656.26,2419.04 1672.49,2344.68L1675.49,2344.75C1673.01,2419.28 1673.46,2725.38 1676.07,2713.54C1750.5,2375.46 1797.77,2412.7 1850.08,2349.08L1853.99,2349.17L1853.99,2526.62L1971.77,2278.2L1853.99,2042.75C1853.99,2042.75 1854.67,2177.68 1853.99,2204.66C1853.95,2206.04 1849.86,2204.68 1849.86,2204.68C1833.99,2122.64 1759.5,2221.99 1676.07,1841.38C1673.53,1829.78 1672.65,2123.98 1675.33,2205.44L1671.44,2205.46C1653.44,2124.08 1659.16,2098.4 1507.56,1847.38C1500.9,1836.35 1503.89,2126.68 1506.78,2206.17L1502.47,2206.19C1482.35,2125.8 1354.04,2315.97 1322.71,1841.38C1321.92,1829.47 1319.4,2127.64 1322.02,2206.97L1319.45,2206.98C1269.98,2108.35 1222.27,2229.84 1148.44,1841.38C1146.97,1833.65 1145.17,2129.41 1146.55,2207.74L1138.91,2207.77L990.196,2039.46Z" style="fill:rgb(2,210,109);"/>
                        </g>
                        <g transform="matrix(1,1.0398e-16,-1.0398e-16,-0.150942,3.3988e-13,2621.23)">
                            <path d="M990.196,2039.46L990.196,2501.66L1145.32,2331.62L1146.84,2331.66C1146.08,2372.05 1147.19,2722.02 1148.44,2713.54C1203.61,2337.76 1312.59,2391.1 1321.44,2335.99L1322.42,2336.01C1320.51,2391.89 1321.83,2726.16 1322.71,2713.54C1356.28,2230.17 1488.16,2407.23 1504.51,2340.52L1507.07,2340.58C1504.62,2406.71 1500.62,2718.97 1507.56,2707.55C1712.51,2370.4 1656.26,2419.04 1672.49,2344.68L1675.49,2344.75C1673.01,2419.28 1673.46,2725.38 1676.07,2713.54C1750.5,2375.46 1797.77,2412.7 1850.08,2349.08L1853.99,2349.17L1853.99,2526.62L1971.77,2278.2L1853.99,2042.75C1853.99,2042.75 1854.67,2177.68 1853.99,2204.66C1853.95,2206.04 1849.86,2204.68 1849.86,2204.68C1833.99,2122.64 1759.5,2221.99 1676.07,1841.38C1673.53,1829.78 1672.65,2123.98 1675.33,2205.44L1671.44,2205.46C1653.44,2124.08 1659.16,2098.4 1507.56,1847.38C1500.9,1836.35 1503.89,2126.68 1506.78,2206.17L1502.47,2206.19C1482.35,2125.8 1354.04,2315.97 1322.71,1841.38C1321.92,1829.47 1319.4,2127.64 1322.02,2206.97L1319.45,2206.98C1269.98,2108.35 1222.27,2229.84 1148.44,1841.38C1146.97,1833.65 1145.17,2129.41 1146.55,2207.74L1138.91,2207.77L990.196,2039.46Z" style="fill:white;"/>
                        </g>
                    </g>
                </g>
                <path d="M901.257,1650L1022.83,2024.17L1416.26,2024.17L1097.97,2255.42L1219.55,2629.6L901.257,2398.35L582.967,2629.6L704.543,2255.42L386.252,2024.17L779.681,2024.17L901.257,1650Z" style="fill:none;stroke:black;stroke-width:25px;"/>
            </g>
            <g transform="matrix(1,0,0,1,2696.77,-5320.94)">
                <g transform="matrix(1,0,0,1,-7.95299,144.82)">
                    <g transform="matrix(600,0,0,600,68.7839,7173.02)">
                        <path d="M0.085,-0.065L0.117,-0.081L0.133,-0.089L0.15,-0.097L0.2,-0.104L0.246,-0.115L0.289,-0.124L0.324,-0.121L0.324,-0.102L0.319,-0.082L0.314,-0.068L0.308,-0.055L0.297,-0.048L0.287,-0.042L0.269,-0.039L0.256,-0.039L0.231,-0.033L0.207,-0.028L0.199,-0.026L0.18,-0.022L0.17,-0.019L0.15,-0.011L0.131,-0.006L0.108,0.005L0.096,0.011L0.084,0.017L0.072,0.024L0.068,0.025L0.054,0.032L0.045,0.036L0.031,0.035L0.024,0.033L0.017,0.031L0.01,0.025L0.004,0.017L-0.013,-0.006L-0.023,-0.013L-0.023,-0.042L-0.013,-0.068L-0.003,-0.099L0.011,-0.127L0.021,-0.149L0.04,-0.192L0.046,-0.202L0.053,-0.211L0.06,-0.225L0.075,-0.248L0.089,-0.272L0.113,-0.321L0.12,-0.336L0.125,-0.347L0.132,-0.368L0.141,-0.389L0.146,-0.404L0.152,-0.421L0.16,-0.438L0.162,-0.448L0.166,-0.457L0.168,-0.464L0.169,-0.471L0.18,-0.495L0.185,-0.51L0.188,-0.519L0.191,-0.525L0.203,-0.55L0.208,-0.564L0.212,-0.569L0.215,-0.575L0.223,-0.598L0.226,-0.607L0.229,-0.614L0.235,-0.625L0.235,-0.627L0.243,-0.645L0.261,-0.689L0.278,-0.724L0.276,-0.74L0.278,-0.755L0.286,-0.76L0.293,-0.766L0.31,-0.775L0.317,-0.772L0.323,-0.766L0.351,-0.727L0.352,-0.709L0.349,-0.692L0.341,-0.674L0.34,-0.653L0.335,-0.636L0.319,-0.611L0.31,-0.595L0.301,-0.578L0.292,-0.561L0.284,-0.543L0.274,-0.526L0.268,-0.516L0.247,-0.467L0.228,-0.422L0.224,-0.407L0.209,-0.366L0.194,-0.325L0.172,-0.271L0.16,-0.246L0.148,-0.22L0.142,-0.207L0.125,-0.168L0.108,-0.129L0.103,-0.113L0.096,-0.097L0.085,-0.065Z" style="fill:url(#_Linear2);fill-rule:nonzero;stroke:black;stroke-width:0.02px;stroke-linecap:butt;stroke-miterlimit:2;"/>
                    </g>
                    <g transform="matrix(600,0,0,600,301.401,7173.02)">
                        <path d="M0.216,-0.549L0.226,-0.547L0.228,-0.541L0.23,-0.536L0.227,-0.518L0.226,-0.5L0.228,-0.493L0.23,-0.488L0.223,-0.473L0.221,-0.468L0.213,-0.462L0.205,-0.457L0.201,-0.452L0.197,-0.446L0.162,-0.444L0.148,-0.455L0.147,-0.499L0.152,-0.51L0.156,-0.518L0.172,-0.529L0.176,-0.532L0.18,-0.535L0.19,-0.54L0.196,-0.542L0.21,-0.547L0.216,-0.549ZM0.069,-0.102L0.074,-0.101L0.096,-0.106L0.116,-0.112L0.123,-0.118L0.13,-0.121L0.156,-0.135L0.18,-0.146L0.193,-0.156L0.227,-0.177L0.258,-0.205L0.281,-0.221L0.301,-0.237L0.306,-0.245L0.312,-0.252L0.331,-0.24L0.318,-0.221L0.303,-0.204L0.29,-0.194L0.28,-0.182L0.269,-0.172L0.257,-0.16L0.243,-0.148L0.226,-0.129L0.181,-0.091L0.158,-0.075L0.138,-0.059L0.131,-0.053L0.124,-0.046L0.109,-0.037L0.091,-0.028L0.08,-0.021L0.047,-0.025L0.027,-0.034L0.016,-0.045L0.002,-0.062L0,-0.075L-0.003,-0.088L-0.005,-0.099L-0.005,-0.112L-0.002,-0.135L0.003,-0.157L0.014,-0.201L0.019,-0.212L0.02,-0.215L0.024,-0.221L0.028,-0.228L0.034,-0.243L0.043,-0.258L0.051,-0.275L0.056,-0.287L0.063,-0.298L0.068,-0.311L0.071,-0.317L0.073,-0.324L0.081,-0.341L0.097,-0.369L0.108,-0.375L0.117,-0.376L0.127,-0.377L0.145,-0.385L0.151,-0.388L0.167,-0.383L0.179,-0.372L0.166,-0.328L0.149,-0.294L0.14,-0.276L0.131,-0.257L0.121,-0.237L0.111,-0.218L0.103,-0.198L0.1,-0.191L0.097,-0.185L0.094,-0.18L0.091,-0.175L0.085,-0.162L0.08,-0.149L0.072,-0.13L0.066,-0.112L0.069,-0.102Z" style="fill:url(#_Linear3);fill-rule:nonzero;stroke:black;stroke-width:0.02px;stroke-linecap:butt;stroke-miterlimit:2;"/>
                    </g>
                    <g transform="matrix(600,0,0,600,457.846,7173.02)">
                        <path d="M0.14,-0.415L0.148,-0.416L0.152,-0.415L0.153,-0.399L0.14,-0.368L0.124,-0.339L0.11,-0.309L0.097,-0.276L0.087,-0.249L0.081,-0.235L0.073,-0.216L0.069,-0.194L0.069,-0.168L0.071,-0.154L0.072,-0.139L0.078,-0.113L0.104,-0.136L0.117,-0.149L0.129,-0.16L0.144,-0.179L0.158,-0.2L0.174,-0.227L0.183,-0.24L0.192,-0.254L0.205,-0.279L0.208,-0.295L0.207,-0.303L0.207,-0.311L0.21,-0.328L0.211,-0.343L0.214,-0.352L0.218,-0.362L0.225,-0.373L0.235,-0.385L0.242,-0.394L0.248,-0.404L0.263,-0.419L0.274,-0.425L0.286,-0.43L0.306,-0.436L0.325,-0.439L0.333,-0.435L0.341,-0.437L0.349,-0.423L0.345,-0.41L0.338,-0.398L0.336,-0.393L0.318,-0.359L0.304,-0.325L0.33,-0.323L0.358,-0.329L0.373,-0.334L0.392,-0.339L0.411,-0.347L0.425,-0.354L0.449,-0.363L0.463,-0.369L0.47,-0.372L0.477,-0.376L0.489,-0.378L0.491,-0.372L0.493,-0.362L0.481,-0.355L0.465,-0.346L0.448,-0.338L0.413,-0.322L0.397,-0.317L0.389,-0.314L0.361,-0.301L0.344,-0.292L0.338,-0.288L0.332,-0.284L0.304,-0.278L0.278,-0.27L0.271,-0.256L0.26,-0.243L0.25,-0.225L0.237,-0.209L0.22,-0.191L0.203,-0.173L0.171,-0.128L0.134,-0.087L0.125,-0.082L0.115,-0.076L0.105,-0.071L0.101,-0.069L0.084,-0.059L0.08,-0.056L0.074,-0.053L0.069,-0.049L0.055,-0.044L0.047,-0.043L0.04,-0.042L0.036,-0.046L0.032,-0.05L0.015,-0.061L0.006,-0.071L0,-0.094L-0,-0.106L-0.002,-0.118L-0.006,-0.132L-0.007,-0.148L-0.01,-0.163L-0.009,-0.194L-0.004,-0.212L0,-0.232L0.008,-0.267L0.023,-0.302L0.032,-0.321L0.037,-0.33L0.046,-0.349L0.048,-0.353L0.055,-0.365L0.06,-0.374L0.066,-0.383L0.081,-0.397L0.098,-0.408L0.122,-0.414L0.14,-0.415Z" style="fill:url(#_Linear4);fill-rule:nonzero;stroke:black;stroke-width:0.02px;stroke-linecap:butt;stroke-miterlimit:2;"/>
                    </g>
                    <g transform="matrix(600,0,0,600,687.534,7173.02)">
                        <path d="M0.008,-0.316L0.023,-0.333L0.042,-0.357L0.055,-0.371L0.06,-0.379L0.067,-0.386L0.088,-0.412L0.112,-0.437L0.131,-0.447L0.15,-0.46L0.192,-0.477L0.213,-0.476L0.232,-0.473L0.241,-0.463L0.247,-0.458L0.256,-0.435L0.257,-0.422L0.258,-0.414L0.258,-0.402L0.248,-0.351L0.244,-0.338L0.239,-0.327L0.229,-0.31L0.223,-0.3L0.212,-0.288L0.202,-0.278L0.193,-0.272L0.185,-0.266L0.165,-0.256L0.156,-0.25L0.146,-0.246L0.127,-0.233L0.117,-0.229L0.106,-0.223L0.094,-0.215L0.08,-0.206L0.066,-0.201L0.053,-0.197L0.057,-0.173L0.062,-0.149L0.089,-0.147L0.118,-0.15L0.135,-0.157L0.141,-0.159L0.162,-0.166L0.18,-0.175L0.234,-0.207L0.28,-0.247L0.306,-0.271L0.328,-0.299L0.354,-0.326L0.375,-0.335L0.39,-0.328L0.389,-0.307L0.368,-0.288L0.346,-0.269L0.324,-0.246L0.302,-0.22L0.297,-0.215L0.292,-0.21L0.281,-0.199L0.252,-0.174L0.243,-0.172L0.235,-0.163L0.223,-0.154L0.206,-0.139L0.187,-0.125L0.167,-0.112L0.147,-0.102L0.128,-0.09L0.109,-0.077L0.089,-0.072L0.079,-0.069L0.066,-0.07L0.014,-0.096L0.008,-0.101L0.001,-0.106L-0.01,-0.116L-0.019,-0.138L-0.027,-0.169L-0.03,-0.194L-0.024,-0.215L-0.018,-0.244L-0.016,-0.264L-0.008,-0.278L0.003,-0.302L0.008,-0.316ZM0.165,-0.394L0.151,-0.376L0.136,-0.36L0.122,-0.339L0.106,-0.321L0.098,-0.308L0.087,-0.298L0.071,-0.276L0.067,-0.253L0.089,-0.258L0.107,-0.268L0.115,-0.273L0.131,-0.283L0.139,-0.288L0.164,-0.316L0.176,-0.329L0.187,-0.345L0.194,-0.366L0.199,-0.386L0.196,-0.396L0.192,-0.405L0.177,-0.4L0.172,-0.397L0.165,-0.394Z" style="fill:url(#_Linear5);fill-rule:nonzero;stroke:black;stroke-width:0.02px;stroke-linecap:butt;stroke-miterlimit:2;"/>
                    </g>
                    <g transform="matrix(600,0,0,600,881.479,7173.02)">
                        <path d="M0.332,-0.893L0.346,-0.891L0.355,-0.891L0.365,-0.892L0.386,-0.892L0.392,-0.893L0.397,-0.893L0.41,-0.879L0.408,-0.859L0.408,-0.846L0.405,-0.834L0.396,-0.816L0.388,-0.799L0.37,-0.768L0.362,-0.75L0.36,-0.745L0.35,-0.728L0.34,-0.709L0.331,-0.692L0.312,-0.656L0.294,-0.618L0.275,-0.582L0.266,-0.565L0.262,-0.555L0.257,-0.546L0.242,-0.522L0.235,-0.503L0.228,-0.484L0.224,-0.475L0.22,-0.466L0.21,-0.447L0.201,-0.431L0.197,-0.421L0.193,-0.412L0.182,-0.396L0.176,-0.38L0.169,-0.366L0.149,-0.325L0.138,-0.305L0.127,-0.284L0.12,-0.279L0.114,-0.273L0.097,-0.266L0.089,-0.266L0.082,-0.269L0.07,-0.275L0.065,-0.28L0.066,-0.29L0.063,-0.298L0.071,-0.322L0.079,-0.346L0.088,-0.371L0.098,-0.394L0.103,-0.404L0.113,-0.424L0.118,-0.434L0.126,-0.453L0.135,-0.472L0.144,-0.493L0.15,-0.513L0.165,-0.551L0.178,-0.585L0.191,-0.618L0.203,-0.641L0.204,-0.648L0.208,-0.656L0.224,-0.703L0.237,-0.731L0.244,-0.753L0.246,-0.76L0.255,-0.785L0.267,-0.828L0.278,-0.855L0.291,-0.876L0.298,-0.883L0.307,-0.888L0.319,-0.89L0.332,-0.893ZM0.06,-0.218L0.079,-0.218L0.087,-0.213L0.089,-0.213L0.105,-0.19L0.103,-0.158L0.085,-0.133L0.067,-0.118L0.053,-0.109L0.037,-0.107L0,-0.122L-0.004,-0.152L0.001,-0.168L0.004,-0.174L0.008,-0.179L0.043,-0.212L0.051,-0.216L0.06,-0.218Z" style="fill:url(#_Linear6);fill-rule:nonzero;stroke:black;stroke-width:0.02px;stroke-linecap:butt;stroke-miterlimit:2;"/>
                    </g>
                </g>
            </g>
        </g>
    </g>
    <defs>
        <linearGradient id="_Linear2" x1="0" y1="0" x2="1" y2="0" gradientUnits="userSpaceOnUse" gradientTransform="matrix(5.80285e-17,0.947678,-0.947678,5.80285e-17,0.986287,-0.970044)"><stop offset="0" style="stop-color:rgb(255,221,115);stop-opacity:1"/><stop offset="0.58" style="stop-color:rgb(235,185,93);stop-opacity:1"/><stop offset="0.8" style="stop-color:rgb(191,108,46);stop-opacity:1"/><stop offset="1" style="stop-color:rgb(148,32,0);stop-opacity:1"/></linearGradient>
        <linearGradient id="_Linear3" x1="0" y1="0" x2="1" y2="0" gradientUnits="userSpaceOnUse" gradientTransform="matrix(5.80285e-17,0.947678,-0.947678,5.80285e-17,0.598592,-0.970044)"><stop offset="0" style="stop-color:rgb(255,221,115);stop-opacity:1"/><stop offset="0.58" style="stop-color:rgb(235,185,93);stop-opacity:1"/><stop offset="0.8" style="stop-color:rgb(191,108,46);stop-opacity:1"/><stop offset="1" style="stop-color:rgb(148,32,0);stop-opacity:1"/></linearGradient>
        <linearGradient id="_Linear4" x1="0" y1="0" x2="1" y2="0" gradientUnits="userSpaceOnUse" gradientTransform="matrix(5.80285e-17,0.947678,-0.947678,5.80285e-17,0.33785,-0.970044)"><stop offset="0" style="stop-color:rgb(255,221,115);stop-opacity:1"/><stop offset="0.58" style="stop-color:rgb(235,185,93);stop-opacity:1"/><stop offset="0.8" style="stop-color:rgb(191,108,46);stop-opacity:1"/><stop offset="1" style="stop-color:rgb(148,32,0);stop-opacity:1"/></linearGradient>
        <linearGradient id="_Linear5" x1="0" y1="0" x2="1" y2="0" gradientUnits="userSpaceOnUse" gradientTransform="matrix(5.80285e-17,0.947678,-0.947678,5.80285e-17,-0.0449627,-0.970044)"><stop offset="0" style="stop-color:rgb(255,221,115);stop-opacity:1"/><stop offset="0.58" style="stop-color:rgb(235,185,93);stop-opacity:1"/><stop offset="0.8" style="stop-color:rgb(191,108,46);stop-opacity:1"/><stop offset="1" style="stop-color:rgb(148,32,0);stop-opacity:1"/></linearGradient>
        <linearGradient id="_Linear6" x1="0" y1="0" x2="1" y2="0" gradientUnits="userSpaceOnUse" gradientTransform="matrix(5.80285e-17,0.947678,-0.947678,5.80285e-17,-0.368205,-0.970044)"><stop offset="0" style="stop-color:rgb(255,221,115);stop-opacity:1"/><stop offset="0.58" style="stop-color:rgb(235,185,93);stop-opacity:1"/><stop offset="0.8" style="stop-color:rgb(191,108,46);stop-opacity:1"/><stop offset="1" style="stop-color:rgb(148,32,0);stop-opacity:1"/></linearGradient>
    </defs>
</svg>
