<?xml version="1.0" encoding="UTF-8" standalone="no"?>
<!DOCTYPE svg PUBLIC "-//W3C//DTD SVG 1.1//EN" "http://www.w3.org/Graphics/SVG/1.1/DTD/svg11.dtd">
<svg width="100%" height="100%" viewBox="0 0 560 560" version="1.1" xmlns="http://www.w3.org/2000/svg" xmlns:xlink="http://www.w3.org/1999/xlink" xml:space="preserve" xmlns:serif="http://www.serif.com/" style="fill-rule:evenodd;clip-rule:evenodd;stroke-linecap:round;stroke-linejoin:round;stroke-miterlimit:1.5;">
    <g transform="matrix(0.48,0,0,0.48,-1900.5,-1892.09)">
        <g id="Trackstar-Live---Favicon" serif:id="Trackstar Live - Favicon" transform="matrix(1,0,0,1,1262.61,3045.33)">
            <rect x="2696.77" y="896.527" width="1166.21" height="1166.21" style="fill:none;"/>
            <g transform="matrix(6.12323e-17,1,-1,6.12323e-17,5450.95,578.377)">
                <path d="M901.257,1650L1022.83,2024.17L1416.26,2024.17L1097.97,2255.42L1219.55,2629.6L901.257,2398.35L582.967,2629.6L704.543,2255.42L386.252,2024.17L779.681,2024.17L901.257,1650Z" style="fill:none;"/>
                <clipPath id="_clip1">
                    <path d="M901.257,1650L1022.83,2024.17L1416.26,2024.17L1097.97,2255.42L1219.55,2629.6L901.257,2398.35L582.967,2629.6L704.543,2255.42L386.252,2024.17L779.681,2024.17L901.257,1650Z"/>
                </clipPath>
                <g clip-path="url(#_clip1)">
                    <g transform="matrix(6.12323e-17,-1,1,6.12323e-17,-1370.81,3582.56)">
                        <g transform="matrix(1.10111,0,0,1.12497,-154.89,-270.794)">
                            <rect x="913.763" y="1744.04" width="1058" height="1019.23"/>
                        </g>
                        <g transform="matrix(1,0,0,-1,0,4554.92)">
                            <path d="M990.196,1847.38L990.196,2707.55L1145.32,2331.62L1146.84,2331.66C1146.08,2372.05 1139.89,2714.17 1148.44,2713.54C1257.39,2705.51 1312.59,2391.1 1321.44,2335.99L1322.42,2336.01C1320.51,2391.89 1310.05,2713.57 1322.71,2713.54C1408.47,2713.35 1488.16,2407.23 1504.51,2340.52L1507.07,2340.58C1504.62,2406.71 1494.22,2706.59 1507.56,2707.55C1586.94,2713.23 1656.26,2419.04 1672.49,2344.68L1675.49,2344.75C1673.01,2419.28 1663.95,2713.84 1676.07,2713.54C1773.44,2711.16 1834.58,2429.61 1850.08,2349.08L1853.99,2349.17L1853.99,2713.54L1971.77,2278.2L1853.99,1841.38L1853.99,2204.66L1849.86,2204.68C1833.99,2122.64 1772.97,1843.75 1676.07,1841.38C1664.2,1841.1 1672.65,2123.98 1675.33,2205.44L1671.44,2205.46C1653.44,2124.08 1585.34,1841.81 1507.56,1847.38C1494.71,1848.3 1503.89,2126.68 1506.78,2206.17L1502.47,2206.19C1482.35,2125.8 1405.34,1841.57 1322.71,1841.38C1310.77,1841.36 1319.4,2127.64 1322.02,2206.97L1319.45,2206.98C1306.07,2128.72 1251.14,1848.96 1148.44,1841.38C1140.59,1840.81 1145.17,2129.41 1146.55,2207.74L1138.91,2207.77L990.196,1847.38Z" style="fill:rgb(12,87,208);"/>
                        </g>
                        <g transform="matrix(1,0,0,-1,0,4554.92)">
                            <path d="M990.196,2039.46L990.196,2501.66L1145.32,2331.62L1146.84,2331.66C1146.08,2372.05 1147.19,2722.02 1148.44,2713.54C1203.61,2337.76 1312.59,2391.1 1321.44,2335.99L1322.42,2336.01C1320.51,2391.89 1321.83,2726.16 1322.71,2713.54C1356.28,2230.17 1488.16,2407.23 1504.51,2340.52L1507.07,2340.58C1504.62,2406.71 1500.62,2718.97 1507.56,2707.55C1712.51,2370.4 1656.26,2419.04 1672.49,2344.68L1675.49,2344.75C1673.01,2419.28 1673.46,2725.38 1676.07,2713.54C1750.5,2375.46 1797.77,2412.7 1850.08,2349.08L1853.99,2349.17L1853.99,2526.62L1971.77,2278.2L1853.99,2042.75C1853.99,2042.75 1854.67,2177.68 1853.99,2204.66C1853.95,2206.04 1849.86,2204.68 1849.86,2204.68C1833.99,2122.64 1759.5,2221.99 1676.07,1841.38C1673.53,1829.78 1672.65,2123.98 1675.33,2205.44L1671.44,2205.46C1653.44,2124.08 1659.16,2098.4 1507.56,1847.38C1500.9,1836.35 1503.89,2126.68 1506.78,2206.17L1502.47,2206.19C1482.35,2125.8 1354.04,2315.97 1322.71,1841.38C1321.92,1829.47 1319.4,2127.64 1322.02,2206.97L1319.45,2206.98C1269.98,2108.35 1222.27,2229.84 1148.44,1841.38C1146.97,1833.65 1145.17,2129.41 1146.55,2207.74L1138.91,2207.77L990.196,2039.46Z" style="fill:rgb(2,210,109);"/>
                        </g>
                        <g transform="matrix(1,1.0398e-16,-1.0398e-16,-0.150942,3.3988e-13,2621.23)">
                            <path d="M990.196,2039.46L990.196,2501.66L1145.32,2331.62L1146.84,2331.66C1146.08,2372.05 1147.19,2722.02 1148.44,2713.54C1203.61,2337.76 1312.59,2391.1 1321.44,2335.99L1322.42,2336.01C1320.51,2391.89 1321.83,2726.16 1322.71,2713.54C1356.28,2230.17 1488.16,2407.23 1504.51,2340.52L1507.07,2340.58C1504.62,2406.71 1500.62,2718.97 1507.56,2707.55C1712.51,2370.4 1656.26,2419.04 1672.49,2344.68L1675.49,2344.75C1673.01,2419.28 1673.46,2725.38 1676.07,2713.54C1750.5,2375.46 1797.77,2412.7 1850.08,2349.08L1853.99,2349.17L1853.99,2526.62L1971.77,2278.2L1853.99,2042.75C1853.99,2042.75 1854.67,2177.68 1853.99,2204.66C1853.95,2206.04 1849.86,2204.68 1849.86,2204.68C1833.99,2122.64 1759.5,2221.99 1676.07,1841.38C1673.53,1829.78 1672.65,2123.98 1675.33,2205.44L1671.44,2205.46C1653.44,2124.08 1659.16,2098.4 1507.56,1847.38C1500.9,1836.35 1503.89,2126.68 1506.78,2206.17L1502.47,2206.19C1482.35,2125.8 1354.04,2315.97 1322.71,1841.38C1321.92,1829.47 1319.4,2127.64 1322.02,2206.97L1319.45,2206.98C1269.98,2108.35 1222.27,2229.84 1148.44,1841.38C1146.97,1833.65 1145.17,2129.41 1146.55,2207.74L1138.91,2207.77L990.196,2039.46Z" style="fill:white;"/>
                        </g>
                    </g>
                </g>
                <path d="M901.257,1650L1022.83,2024.17L1416.26,2024.17L1097.97,2255.42L1219.55,2629.6L901.257,2398.35L582.967,2629.6L704.543,2255.42L386.252,2024.17L779.681,2024.17L901.257,1650Z" style="fill:none;stroke:black;stroke-width:25px;"/>
            </g>
            <g transform="matrix(1,0,0,1,2696.77,-5320.94)">
                <g transform="matrix(1.76966,0,0,1.76966,67.4483,-5497.07)">
                    <g transform="matrix(600,0,0,600,68.7839,7173.02)">
                        <path d="M0.085,-0.076L0.117,-0.091L0.133,-0.1L0.15,-0.107L0.2,-0.115L0.246,-0.125L0.289,-0.135L0.324,-0.131L0.324,-0.112L0.319,-0.093L0.314,-0.079L0.308,-0.065L0.297,-0.058L0.287,-0.053L0.269,-0.049L0.256,-0.05L0.231,-0.043L0.207,-0.038L0.199,-0.036L0.18,-0.032L0.17,-0.03L0.15,-0.021L0.131,-0.016L0.108,-0.005L0.096,0.001L0.084,0.007L0.072,0.014L0.068,0.015L0.054,0.022L0.045,0.026L0.031,0.025L0.024,0.023L0.017,0.021L0.01,0.015L0.004,0.006L-0.013,-0.016L-0.023,-0.023L-0.023,-0.052L-0.013,-0.078L-0.003,-0.11L0.011,-0.138L0.021,-0.159L0.04,-0.202L0.046,-0.212L0.053,-0.221L0.06,-0.235L0.075,-0.258L0.089,-0.282L0.101,-0.307L0.113,-0.331L0.12,-0.343L0.125,-0.352L0.132,-0.368L0.141,-0.383L0.146,-0.395L0.152,-0.407L0.16,-0.421L0.162,-0.43L0.166,-0.438L0.168,-0.446L0.169,-0.452L0.18,-0.476L0.185,-0.49L0.188,-0.499L0.191,-0.505L0.203,-0.529L0.208,-0.542L0.212,-0.546L0.215,-0.553L0.223,-0.574L0.226,-0.583L0.229,-0.59L0.235,-0.601L0.235,-0.603L0.243,-0.619L0.261,-0.662L0.278,-0.695L0.276,-0.711L0.278,-0.727L0.286,-0.731L0.293,-0.736L0.31,-0.743L0.317,-0.74L0.323,-0.733L0.351,-0.691L0.352,-0.673L0.349,-0.656L0.341,-0.64L0.34,-0.618L0.335,-0.602L0.319,-0.578L0.31,-0.563L0.301,-0.547L0.292,-0.531L0.284,-0.514L0.274,-0.498L0.268,-0.488L0.247,-0.441L0.228,-0.404L0.224,-0.394L0.209,-0.365L0.194,-0.335L0.172,-0.282L0.16,-0.257L0.148,-0.23L0.142,-0.218L0.125,-0.179L0.108,-0.139L0.103,-0.124L0.096,-0.108L0.085,-0.076Z" style="fill:url(#_Linear2);fill-rule:nonzero;stroke:black;stroke-width:0.01px;stroke-linecap:butt;stroke-miterlimit:2;"/>
                    </g>
                    <g transform="matrix(600,0,0,600,301.401,7173.02)">
                        <path d="M0.332,-0.731L0.346,-0.728L0.355,-0.727L0.365,-0.727L0.386,-0.726L0.392,-0.726L0.397,-0.725L0.41,-0.71L0.408,-0.69L0.408,-0.677L0.405,-0.665L0.396,-0.649L0.388,-0.632L0.37,-0.603L0.362,-0.586L0.36,-0.581L0.35,-0.564L0.34,-0.547L0.331,-0.53L0.312,-0.496L0.294,-0.46L0.275,-0.426L0.266,-0.414L0.257,-0.409L0.242,-0.4L0.228,-0.386L0.22,-0.379L0.21,-0.366L0.201,-0.35L0.197,-0.34L0.193,-0.331L0.182,-0.315L0.176,-0.299L0.169,-0.285L0.149,-0.244L0.138,-0.224L0.127,-0.203L0.12,-0.198L0.114,-0.192L0.097,-0.185L0.089,-0.185L0.082,-0.188L0.07,-0.194L0.065,-0.199L0.066,-0.209L0.063,-0.218L0.071,-0.241L0.079,-0.265L0.088,-0.29L0.098,-0.314L0.103,-0.324L0.113,-0.343L0.118,-0.353L0.126,-0.37L0.135,-0.378L0.144,-0.388L0.15,-0.396L0.165,-0.412L0.178,-0.438L0.191,-0.47L0.203,-0.491L0.204,-0.499L0.208,-0.506L0.224,-0.552L0.237,-0.578L0.244,-0.599L0.246,-0.606L0.255,-0.631L0.267,-0.673L0.278,-0.698L0.291,-0.718L0.298,-0.724L0.307,-0.729L0.319,-0.729L0.332,-0.731ZM0.06,-0.137L0.079,-0.137L0.087,-0.132L0.089,-0.132L0.105,-0.109L0.103,-0.077L0.085,-0.052L0.067,-0.037L0.053,-0.028L0.037,-0.026L0,-0.041L-0.004,-0.072L0.001,-0.087L0.004,-0.093L0.008,-0.098L0.043,-0.131L0.051,-0.135L0.06,-0.137Z" style="fill:url(#_Linear3);fill-rule:nonzero;stroke:black;stroke-width:0.01px;stroke-linecap:butt;stroke-miterlimit:2;"/>
                    </g>
                </g>
            </g>
        </g>
    </g>
    <defs>
        <linearGradient id="_Linear2" x1="0" y1="0" x2="1" y2="0" gradientUnits="userSpaceOnUse" gradientTransform="matrix(5.80285e-17,0.947678,-0.947678,5.80285e-17,0.986287,-0.970044)"><stop offset="0" style="stop-color:rgb(255,221,115);stop-opacity:1"/><stop offset="0.58" style="stop-color:rgb(235,185,93);stop-opacity:1"/><stop offset="0.8" style="stop-color:rgb(191,108,46);stop-opacity:1"/><stop offset="1" style="stop-color:rgb(148,32,0);stop-opacity:1"/></linearGradient>
        <linearGradient id="_Linear3" x1="0" y1="0" x2="1" y2="0" gradientUnits="userSpaceOnUse" gradientTransform="matrix(5.80285e-17,0.947678,-0.947678,5.80285e-17,0.598592,-0.970044)"><stop offset="0" style="stop-color:rgb(255,221,115);stop-opacity:1"/><stop offset="0.58" style="stop-color:rgb(235,185,93);stop-opacity:1"/><stop offset="0.8" style="stop-color:rgb(191,108,46);stop-opacity:1"/><stop offset="1" style="stop-color:rgb(148,32,0);stop-opacity:1"/></linearGradient>
    </defs>
</svg>
